<svg width="72" height="72" viewBox="0 0 72 72" fill="none" xmlns="http://www.w3.org/2000/svg">
<path fill-rule="evenodd" clip-rule="evenodd" d="M11.998 33.0007L11.998 39.0007L59.998 39.0007L59.998 33.0007L53.998 33.0007L53.998 27.0007L47.9984 27.0007L47.9984 21.0021L41.9984 21.0021L41.9984 27.0021L47.998 27.0021L47.998 33.0007L11.998 33.0007ZM47.998 39.002L47.998 45.002L53.998 45.002L53.998 39.002L47.998 39.002ZM41.9984 51.0021L41.9984 45.0021L47.9984 45.0021L47.9984 51.0021L41.9984 51.0021ZM35.9977 51.0007L35.9977 57.0007L41.9977 57.0007L41.9977 51.0007L35.9977 51.0007ZM35.9977 15.002L35.9977 21.002L41.9977 21.002L41.9977 15.002L35.9977 15.002Z" fill="#D5431A"/>
</svg>
