<svg width="56" height="56" viewBox="0 0 56 56" fill="none" xmlns="http://www.w3.org/2000/svg">
<path d="M18.6665 11.6667H23.3332V16.3334H18.6665V11.6667Z" fill="#D5431A"/>
<path d="M13.9998 16.3334H18.6665V21.0001H13.9998V16.3334Z" fill="#D5431A"/>
<path d="M9.33317 21.0001H13.9998V25.6667H9.33317V21.0001Z" fill="#D5431A"/>
<path d="M4.6665 25.6667H9.33317V30.3334H4.6665V25.6667Z" fill="#D5431A"/>
<path d="M9.33317 30.3334H13.9998V35.0001H9.33317V30.3334Z" fill="#D5431A"/>
<path d="M13.9998 35.0001H18.6665V39.6667H13.9998V35.0001Z" fill="#D5431A"/>
<path d="M18.6665 39.6667H23.3332V44.3334H18.6665V39.6667Z" fill="#D5431A"/>
<path d="M37.3332 11.6667H32.6665V16.3334H37.3332V11.6667Z" fill="#D5431A"/>
<path d="M41.9998 16.3334H37.3332V21.0001H41.9998V16.3334Z" fill="#D5431A"/>
<path d="M46.6665 21.0001H41.9998V25.6667H46.6665V21.0001Z" fill="#D5431A"/>
<path d="M51.3332 25.6667H46.6665V30.3334H51.3332V25.6667Z" fill="#D5431A"/>
<path d="M46.6665 30.3334H41.9998V35.0001H46.6665V30.3334Z" fill="#D5431A"/>
<path d="M41.9998 35.0001H37.3332V39.6667H41.9998V35.0001Z" fill="#D5431A"/>
<path d="M37.3332 39.6667H32.6665V44.3334H37.3332V39.6667Z" fill="#D5431A"/>
</svg>
