<svg width="64" height="64" viewBox="0 0 64 64" fill="none" xmlns="http://www.w3.org/2000/svg">
<path fill-rule="evenodd" clip-rule="evenodd" d="M5.33203 5.33325H10.6641H10.6654H53.3307V10.6666H10.6654V42.6665H53.3307V47.9998H10.6654V47.9999H5.33203V5.33325ZM58.6654 5.33325H53.332V47.9999H58.6654V5.33325ZM32 21.333H37.3333V26.6663H32V21.333ZM31.9974 26.6665H26.6641V31.9998H31.9974V26.6665ZM37.332 26.6666H42.6654V31.9999H37.332V26.6666ZM26.6654 31.9999H21.332V37.3333H26.6654V31.9999ZM42.6641 32H47.9974V37.3333H42.6641V32ZM21.3333 16H16V21.3333H21.3333V16ZM18.6641 53.333H13.3307V58.6663H18.6641V53.333ZM18.6667 48H24V53.3333H18.6667V48ZM45.332 47.9999H39.9987V53.3333H45.3307V58.6663H50.6641V53.333H45.332V47.9999Z" fill="#D5431A"/>
</svg>
